<svg xmlns="http://www.w3.org/2000/svg" width="96" height="96" viewBox="0 0 96 96" fill="none">
  <rect width="96" height="96" rx="24" fill="#DFF4F2"/>
  <path d="M22 28H74C78 28 81 31 81 35V61C81 65 78 68 74 68H50L35 80V68H22C18 68 15 65 15 61V35C15 31 18 28 22 28Z" stroke="#2F8F8B" stroke-width="5" stroke-linejoin="round"/>
  <circle cx="35" cy="48" r="4" fill="#2F8F8B"/>
  <circle cx="48" cy="48" r="4" fill="#2F8F8B"/>
  <circle cx="61" cy="48" r="4" fill="#2F8F8B"/>
  <path d="M68 76C68 76 59 70 59 64C59 60.5 63.5 59 68 63C72.5 59 77 60.5 77 64C77 70 68 76 68 76Z" fill="#FF5A45"/>
</svg>
