<svg xmlns="http://www.w3.org/2000/svg" width="96" height="96" viewBox="0 0 96 96" fill="none">
  <rect width="96" height="96" rx="48" fill="#DFF4F2"/>
  <path d="M70 35C64 25 51 21 40 26C31 30 26 39 27 49" stroke="#2F8F8B" stroke-width="5" stroke-linecap="round"/>
  <path d="M70 35V22" stroke="#2F8F8B" stroke-width="5" stroke-linecap="round"/>
  <path d="M70 35H57" stroke="#2F8F8B" stroke-width="5" stroke-linecap="round"/>
  <path d="M26 61C32 71 45 75 56 70C65 66 70 57 69 47" stroke="#2F8F8B" stroke-width="5" stroke-linecap="round"/>
  <path d="M26 61V74" stroke="#2F8F8B" stroke-width="5" stroke-linecap="round"/>
  <path d="M26 61H39" stroke="#2F8F8B" stroke-width="5" stroke-linecap="round"/>
  <path d="M48 57C48 57 38 51 38 44.5C38 40.5 43 39 48 43C53 39 58 40.5 58 44.5C58 51 48 57 48 57Z" fill="#FF5A45"/>
</svg>
