<svg xmlns="http://www.w3.org/2000/svg" width="96" height="96" viewBox="0 0 96 96" fill="none">
  <rect width="96" height="96" rx="48" fill="#DFF4F2"/>
  <path d="M28 57V37C28 32 35 32 35 37V53" stroke="#2F8F8B" stroke-width="5" stroke-linecap="round"/>
  <path d="M68 57V37C68 32 61 32 61 37V53" stroke="#2F8F8B" stroke-width="5" stroke-linecap="round"/>
  <path d="M35 54C40 50 45 50 48 55C51 50 56 50 61 54" stroke="#2F8F8B" stroke-width="5" stroke-linecap="round"/>
  <path d="M48 47C48 47 37 40 37 32.5C37 28 42.5 26 48 31C53.5 26 59 28 59 32.5C59 40 48 47 48 47Z" fill="#FF5A45"/>
</svg>
