<svg xmlns="http://www.w3.org/2000/svg" viewBox="0 0 64 64" width="64" height="64" role="img" aria-label="Work beside you icon">
  <circle cx="32" cy="32" r="30" fill="#DFF4F2"/>
  <circle stroke="#2F8F8B" stroke-width="2.4" stroke-linecap="round" stroke-linejoin="round" fill="none" cx="24" cy="24" r="6"/>
  <circle stroke="#2F8F8B" stroke-width="2.4" stroke-linecap="round" stroke-linejoin="round" fill="none" cx="42" cy="26" r="5"/>
  <path stroke="#2F8F8B" stroke-width="2.4" stroke-linecap="round" stroke-linejoin="round" fill="none" d="M12 48c1.5-8 6.5-13 12-13s10.5 5 12 13"/>
  <path stroke="#2F8F8B" stroke-width="2.4" stroke-linecap="round" stroke-linejoin="round" fill="none" d="M34 47c1-6 4.5-10 8.5-10 4.5 0 8 4 9.5 10"/>
  <path fill="#FFFFFF" stroke="#FF604A" stroke-width="2.2" stroke-linecap="round" stroke-linejoin="round" d="M33 21l-1.5-1.5a3.4 3.4 0 0 0-4.8 4.8L33 30l6.3-5.7a3.4 3.4 0 0 0-4.8-4.8L33 21z"/>
</svg>
